<svg width="25" height="25" viewBox="0 0 25 25" fill="none" xmlns="http://www.w3.org/2000/svg">
<path fill-rule="evenodd" clip-rule="evenodd" d="M3.58794 3.58794C5.88526 1.29062 9.0011 0 12.25 0C15.4989 0 18.6147 1.29062 20.9121 3.58794C23.2094 5.88526 24.5 9.0011 24.5 12.25C24.5 11.4238 21.8955 10.6175 19.5505 9.89148C17.912 9.38423 16.4002 8.9162 15.992 8.50799C14.9996 7.51555 13.6535 6.958 12.25 6.958C10.8465 6.958 9.50043 7.51555 8.50799 8.50799C8.09978 8.9162 6.58797 9.38423 4.94949 9.89148C2.60448 10.6175 0 11.4238 0 12.25C0 9.0011 1.29062 5.88526 3.58794 3.58794ZM0 12.25C0 13.0762 2.60448 13.8825 4.94949 14.6085C6.58797 15.1158 8.09978 15.5838 8.50799 15.992C9.01949 16.5035 9.62491 15.4938 10.2837 14.395C10.9032 13.3619 11.5698 12.25 12.25 12.25L12.25 24.5C9.0011 24.5 5.88526 23.2094 3.58794 20.9121C1.29062 18.6147 0 15.4989 0 12.25ZM24.5 12.25C24.5 13.0762 21.8955 13.8825 19.5505 14.6085C17.912 15.1158 16.4002 15.5838 15.992 15.992C15.4805 16.5035 14.8751 15.4938 14.2163 14.395C13.5968 13.3619 12.9302 12.25 12.25 12.25V24.5C15.4989 24.5 18.6147 23.2094 20.9121 20.9121C23.2094 18.6147 24.5 15.4989 24.5 12.25Z" fill="url(#paint0_linear_242_1192)"/>
<defs>
<linearGradient id="paint0_linear_242_1192" x1="-3.25655e-07" y1="-3.73242" x2="0.929625" y2="18.5107" gradientUnits="userSpaceOnUse">
<stop stop-color="#000080"/>
<stop offset="1" stop-color="#0000CD"/>
</linearGradient>
</defs>
</svg>
